<svg width="228" height="232" viewBox="0 0 228 232" fill="none" xmlns="http://www.w3.org/2000/svg">
<path d="M189.182 86.2336C210.621 123.366 197.898 170.848 160.765 192.286C123.633 213.725 76.1513 201.002 54.7127 163.87C33.2742 126.737 45.9968 79.2555 83.1294 57.8169C120.262 36.3784 167.744 49.101 189.182 86.2336Z" fill="#FFBE17"/>
<path d="M116.018 131.795C120.89 131.795 124.901 128.008 125.121 123.198L127.697 67.107C127.932 61.979 123.788 57.6944 118.593 57.6944H108.407C103.212 57.6944 99.0678 61.979 99.3033 67.107L101.879 123.198C102.099 128.008 106.11 131.795 110.982 131.795H116.018ZM113.5 169.694C122.345 169.694 130 162.386 130 153.209C130 144.031 122.345 136.723 113.5 136.723C104.655 136.723 97 144.031 97 153.209C97 162.386 104.655 169.694 113.5 169.694Z" fill="#333C43"/>
<path fill-rule="evenodd" clip-rule="evenodd" d="M150.979 178.17C186.51 157.657 198.684 112.224 178.17 76.6932C157.657 41.1625 112.224 28.9889 76.6931 49.5025C41.1625 70.0161 28.9888 115.449 49.5024 150.98C70.0161 186.51 115.449 198.684 150.979 178.17ZM155.503 186.006C195.361 162.994 209.018 112.027 186.006 72.1693C162.994 32.3113 112.027 18.655 72.1693 41.667C32.3113 64.679 18.6549 115.645 41.667 155.503C64.679 195.361 115.645 209.018 155.503 186.006Z" fill="#333C43"/>
</svg>
